<?xml version="1.0" encoding="UTF-8"?>
<svg width="88px" height="88px" viewBox="0 0 88 88" version="1.1" xmlns="http://www.w3.org/2000/svg" xmlns:xlink="http://www.w3.org/1999/xlink">
    <title>ai</title>
    <defs>
        <rect id="path-1" x="0" y="0" width="68" height="68" rx="34"></rect>
        <filter x="-22.1%" y="-22.1%" width="144.1%" height="144.1%" filterUnits="objectBoundingBox" id="filter-2">
            <feOffset dx="0" dy="0" in="SourceAlpha" result="shadowOffsetOuter1"></feOffset>
            <feGaussianBlur stdDeviation="5" in="shadowOffsetOuter1" result="shadowBlurOuter1"></feGaussianBlur>
            <feColorMatrix values="0 0 0 0 0   0 0 0 0 0   0 0 0 0 0  0 0 0 0.239073427 0" type="matrix" in="shadowBlurOuter1"></feColorMatrix>
        </filter>
        <linearGradient x1="67.3273572%" y1="101.961334%" x2="29.6225765%" y2="-1.09274307%" id="linearGradient-3">
            <stop stop-color="#F28ADF" offset="0%"></stop>
            <stop stop-color="#D683E8" offset="16%"></stop>
            <stop stop-color="#B87DF2" offset="38%"></stop>
            <stop stop-color="#A278F9" offset="60%"></stop>
            <stop stop-color="#9575FD" offset="81%"></stop>
            <stop stop-color="#9175FF" offset="100%"></stop>
        </linearGradient>
        <linearGradient x1="33.5984709%" y1="114.031823%" x2="82.1312674%" y2="18.5261003%" id="linearGradient-4">
            <stop stop-color="#65DAF1" offset="0%"></stop>
            <stop stop-color="#5BD0F2" offset="7%"></stop>
            <stop stop-color="#3EB5F8" offset="31%"></stop>
            <stop stop-color="#29A2FB" offset="54%"></stop>
            <stop stop-color="#1D96FE" offset="78%"></stop>
            <stop stop-color="#1993FF" offset="100%"></stop>
        </linearGradient>
    </defs>
    <g id="ai" stroke="none" stroke-width="1" fill="none" fill-rule="evenodd">
        <g id="编组备份" transform="translate(10.000000, 10.000000)">
            <rect id="矩形" fill="#D7EFFF" x="10.7504733" y="10" width="46.9087961" height="47.9035176" rx="23.454398"></rect>
            <g id="矩形">
                <use fill="black" fill-opacity="1" filter="url(#filter-2)" xlink:href="#path-1"></use>
                <use fill="#FFFFFF" fill-rule="evenodd" xlink:href="#path-1"></use>
            </g>
            <g id="编组" fill-rule="nonzero">
                <g id="AI-logo" transform="translate(15.111111, 15.141546)">
                    <path d="M9.62293007,12.3820389 C9.05634848,12.3820389 8.52753899,12.0319432 8.31979241,11.4736825 C7.88541319,10.3098509 7.66822358,9.10817108 7.66822358,7.89702923 C7.66822358,6.68588738 7.88541319,5.48420757 8.31979241,4.32037595 C8.59364018,3.60126047 9.38685441,3.23224069 10.1045244,3.50664002 C10.8221944,3.7715773 11.1904725,4.57585118 10.9166247,5.29496666 C10.5955618,6.14655077 10.4350304,7.01705898 10.4350304,7.89702923 C10.4350304,8.77699948 10.5955618,9.64750768 10.9166247,10.4990918 C11.1810294,11.2182073 10.8221944,12.0224812 10.1045244,12.2874184 C9.94399297,12.3441907 9.78346152,12.3725768 9.61348704,12.3725768 L9.62293007,12.3820389 Z" id="路径" fill="#00BBFF"></path>
                    <path d="M2.59731833,15.8167615 C2.03073674,15.8167615 1.50192726,15.4666658 1.29418067,14.9084051 C0.444308287,12.6280521 0.0193720936,10.2720027 0.0193720936,7.90649127 C0.0193720936,5.54097984 0.453751314,3.18493046 1.29418067,0.904577445 C1.55858542,0.185461971 2.3706857,-0.183557812 3.07891269,0.0908415138 C3.7965827,0.355778794 4.16486074,1.16005268 3.89101297,1.87916815 C3.1544569,3.84727366 2.78617887,5.87215144 2.78617887,7.90649127 C2.78617887,9.9408311 3.1544569,11.9657089 3.89101297,13.9338144 C4.15541771,14.6529299 3.7965827,15.4572038 3.07891269,15.722141 C2.91838124,15.7789133 2.75784979,15.8072994 2.58787531,15.8072994 L2.59731833,15.8167615 Z" id="路径" fill="#00BBFF"></path>
                    <path d="M26.9131116,12.3820389 C26.7525802,12.3820389 26.5826057,12.3536528 26.4315173,12.2968805 C25.7138473,12.0319432 25.3455692,11.2276693 25.619417,10.5085538 C25.9310369,9.65696973 26.0915683,8.78646152 26.0915683,7.90649127 C26.0915683,7.02652102 25.9310369,6.15601282 25.619417,5.3044287 C25.3550123,4.58531323 25.7138473,3.78103934 26.4315173,3.51610206 C27.1491873,3.25116478 27.9518446,3.61072252 28.2162493,4.32983799 C28.6506285,5.49366962 28.8678181,6.69534942 28.8678181,7.90649127 C28.8678181,9.11763312 28.6506285,10.3193129 28.2162493,11.4831446 C28.0085027,12.0414052 27.4796932,12.3915009 26.9131116,12.3915009 L26.9131116,12.3820389 Z" id="路径" fill="#00BBFF"></path>
                    <path d="M33.9387234,15.8167615 C33.7781919,15.8167615 33.6082174,15.7883754 33.447686,15.7316031 C32.730016,15.4666658 32.3617379,14.6623919 32.6355857,13.9432764 C33.3721418,11.984633 33.7404198,9.95029315 33.7404198,7.91595332 C33.7404198,5.88161349 33.3721418,3.84727366 32.6355857,1.8886302 C32.371181,1.16951473 32.730016,0.365240839 33.447686,0.0908415138 C34.165356,-0.174095766 34.9680133,0.185461971 35.241861,0.904577445 C36.0917334,3.17546842 36.5166696,5.5315178 36.5166696,7.90649127 C36.5166696,10.2814647 36.0822904,12.6375141 35.241861,14.9084051 C35.0341144,15.4666658 34.505305,15.8167615 33.9387234,15.8167615 L33.9387234,15.8167615 Z" id="路径" fill="#00BBFF"></path>
                    <path d="M17.6022875,4.0838248 L17.6022875,4.0838248 C15.0715564,4.0838248 13.4095837,6.7331976 14.5049748,9.02301267 L27.4985793,36.2737043 C27.9612876,37.238833 28.9339193,37.853866 30.0009813,37.853866 L35.1474308,37.853866 C35.4873797,37.853866 35.7140124,37.4943082 35.5629239,37.1820607 L20.7090432,6.04246827 C20.1330186,4.85025051 18.9337542,4.09328685 17.6117305,4.09328685 L17.6022875,4.0838248 Z" id="路径" fill="url(#linearGradient-3)"></path>
                    <path d="M22.3804589,32.886292 L20.6146129,29.2055562 C20.1519046,28.2404275 19.1792729,27.6253945 18.1122109,27.6253945 L13.0035336,27.6253945 C12.6635846,27.6253945 12.436952,27.2658368 12.5785974,26.9535893 L15.4492774,20.9641144 C15.8175555,20.1976887 15.8175555,19.3177184 15.4492774,18.5512927 L12.6352555,12.6753623 C12.4652811,12.3252666 11.9648006,12.3252666 11.7948262,12.6753623 L4.62756904,27.6253945 L4.62756904,27.6253945 L1.78521805,33.5486352 L1.78521805,33.5486352 L0.0477011732,37.1725987 C-0.103387251,37.4848462 0.123245385,37.8349419 0.46319434,37.8349419 L5.6096438,37.8349419 C6.67670579,37.8349419 7.64933753,37.2199089 8.11204583,36.2547802 L8.65974136,35.1193347 C9.12244966,34.1542061 10.0950814,33.5391731 11.1621434,33.5391731 L21.9649657,33.5391731 C22.3049147,33.5391731 22.5315473,33.1796154 22.3804589,32.8768299 L22.3804589,32.886292 Z" id="路径" fill="url(#linearGradient-4)"></path>
                </g>
            </g>
        </g>
    </g>
</svg>