<?xml version="1.0" encoding="UTF-8"?>
<svg width="40px" height="40px" viewBox="0 0 40 40" version="1.1" xmlns="http://www.w3.org/2000/svg" xmlns:xlink="http://www.w3.org/1999/xlink">
    <title>logo对话 ai</title>
    <defs>
        <linearGradient x1="67.3273572%" y1="101.961334%" x2="29.6225765%" y2="-1.09274307%" id="linearGradient-1">
            <stop stop-color="#F28ADF" offset="0%"></stop>
            <stop stop-color="#D683E8" offset="16%"></stop>
            <stop stop-color="#B87DF2" offset="38%"></stop>
            <stop stop-color="#A278F9" offset="60%"></stop>
            <stop stop-color="#9575FD" offset="81%"></stop>
            <stop stop-color="#9175FF" offset="100%"></stop>
        </linearGradient>
        <linearGradient x1="33.5984709%" y1="114.031823%" x2="82.1312674%" y2="18.5261003%" id="linearGradient-2">
            <stop stop-color="#65DAF1" offset="0%"></stop>
            <stop stop-color="#5BD0F2" offset="7%"></stop>
            <stop stop-color="#3EB5F8" offset="31%"></stop>
            <stop stop-color="#29A2FB" offset="54%"></stop>
            <stop stop-color="#1D96FE" offset="78%"></stop>
            <stop stop-color="#1993FF" offset="100%"></stop>
        </linearGradient>
    </defs>
    <g id="logo对话-ai" stroke="none" stroke-width="1" fill="none" fill-rule="evenodd">
        <circle id="椭圆形" fill="#FFFFFF" cx="20" cy="20" r="20"></circle>
        <g id="编组" transform="translate(4.000000, 3.000000)" fill-rule="nonzero">
            <g id="AI-logo" transform="translate(7.318593, 7.333333)">
                <path d="M4.66056452,5.99685239 C4.38615849,5.99685239 4.13004619,5.82729451 4.02943065,5.55691845 C3.81905269,4.99325308 3.71386371,4.41125714 3.71386371,3.82467855 C3.71386371,3.23809996 3.81905269,2.65610402 4.02943065,2.09243866 C4.16206023,1.74415762 4.54622867,1.56543445 4.89380965,1.69833117 C5.24139062,1.82664523 5.41975454,2.21617008 5.28712496,2.56445111 C5.13162821,2.97688918 5.05387983,3.39849254 5.05387983,3.82467855 C5.05387983,4.25086456 5.13162821,4.67246792 5.28712496,5.08490599 C5.41518111,5.43318702 5.24139062,5.82271187 4.89380965,5.95102593 C4.81606127,5.97852181 4.7383129,5.99226974 4.65599109,5.99226974 L4.66056452,5.99685239 Z" id="路径" fill="#00BBFF"></path>
                <path d="M1.25792971,7.6603526 C0.983523682,7.6603526 0.727411385,7.49079473 0.62679584,7.22041866 C0.215186791,6.11600116 0.00938226628,4.9749225 0.00938226628,3.8292612 C0.00938226628,2.68359989 0.219760225,1.54252123 0.62679584,0.438103729 C0.754851988,0.0898226918 1.1481673,-0.088900472 1.49117484,0.0439962395 C1.83875582,0.172310306 2.01711974,0.56183515 1.88449016,0.910116187 C1.52776231,1.86330639 1.34939839,2.84399247 1.34939839,3.8292612 C1.34939839,4.81452992 1.52776231,5.795216 1.88449016,6.7484062 C2.0125463,7.09668724 1.83875582,7.48621209 1.49117484,7.61452615 C1.41342647,7.64202202 1.33567809,7.65576996 1.25335628,7.65576996 L1.25792971,7.6603526 Z" id="路径" fill="#00BBFF"></path>
                <path d="M13.034522,5.99685239 C12.9567736,5.99685239 12.8744518,5.98310445 12.8012768,5.95560858 C12.4536958,5.82729451 12.2753319,5.43776967 12.4079615,5.08948863 C12.5588848,4.67705056 12.6366332,4.2554472 12.6366332,3.8292612 C12.6366332,3.40307519 12.5588848,2.98147183 12.4079615,2.56903376 C12.2799054,2.22075272 12.4536958,1.83122788 12.8012768,1.70291381 C13.1488578,1.57459974 13.5375997,1.74874026 13.6656558,2.0970213 C13.8760338,2.66068666 13.9812228,3.24268261 13.9812228,3.8292612 C13.9812228,4.41583978 13.8760338,4.99783573 13.6656558,5.56150109 C13.5650403,5.83187716 13.308928,6.00143503 13.034522,6.00143503 L13.034522,5.99685239 Z" id="路径" fill="#00BBFF"></path>
                <path d="M16.4371568,7.6603526 C16.3594084,7.6603526 16.2770866,7.64660467 16.1993382,7.6191088 C15.8517572,7.49079473 15.6733933,7.10126989 15.8060229,6.75298885 C16.1627507,5.80438129 16.3411146,4.81911256 16.3411146,3.83384384 C16.3411146,2.84857512 16.1627507,1.86330639 15.8060229,0.914698832 C15.6779667,0.566417795 15.8517572,0.176892951 16.1993382,0.0439962395 C16.5469192,-0.0843178268 16.935661,0.0898226918 17.0682906,0.438103729 C17.4798997,1.53793858 17.6857042,2.67901724 17.6857042,3.8292612 C17.6857042,4.97950515 17.4753262,6.12058381 17.0682906,7.22041866 C16.9676751,7.49079473 16.7115628,7.6603526 16.4371568,7.6603526 L16.4371568,7.6603526 Z" id="路径" fill="#00BBFF"></path>
                <path d="M8.52511615,1.97787252 L8.52511615,1.97787252 C7.29943587,1.97787252 6.49451151,3.26101319 7.02502984,4.37001333 L13.3180749,17.5680316 C13.5421731,18.0354614 14.0132368,18.3333333 14.5300348,18.3333333 L17.0225563,18.3333333 C17.1871999,18.3333333 17.2969623,18.1591928 17.2237874,18.0079655 L10.0297759,2.92648009 C9.75079643,2.34906679 9.16997032,1.98245517 8.52968958,1.98245517 L8.52511615,1.97787252 Z" id="路径" fill="url(#linearGradient-1)"></path>
                <path d="M10.8392737,15.9274446 L9.98404155,14.1447956 C9.75994329,13.6773658 9.2888796,13.3794938 8.77208158,13.3794938 L6.29785385,13.3794938 C6.13321023,13.3794938 6.02344782,13.2053533 6.09204932,13.054126 L7.48237322,10.1533116 C7.66073714,9.78211734 7.66073714,9.35593134 7.48237322,8.98473707 L6.11948993,6.13891439 C6.03716812,5.96935652 5.79477612,5.96935652 5.71245431,6.13891439 L2.241218,13.3794938 L2.241218,13.3794938 L0.864614401,16.2482298 L0.864614401,16.2482298 L0.0231025679,18.0033829 C-0.0500723741,18.1546102 0.0596900389,18.324168 0.224333659,18.324168 L2.71685512,18.324168 C3.23365315,18.324168 3.70471684,18.0262961 3.9288151,17.5588663 L4.19407426,17.0089489 C4.41817252,16.5415191 4.88923621,16.2436471 5.40603424,16.2436471 L10.6380426,16.2436471 C10.8026862,16.2436471 10.9124486,16.0695066 10.8392737,15.9228619 L10.8392737,15.9274446 Z" id="路径" fill="url(#linearGradient-2)"></path>
            </g>
        </g>
    </g>
</svg>