<?xml version="1.0" encoding="UTF-8"?>
<svg width="40px" height="40px" viewBox="0 0 40 40" version="1.1" xmlns="http://www.w3.org/2000/svg" xmlns:xlink="http://www.w3.org/1999/xlink">
    <title>logo用户</title>
    <defs>
        <path d="M5.795,6.2197 C5.795,3.8927 7.688,1.9997 10.015,1.9997 C12.342,1.9997 14.235,3.8927 14.235,6.2197 C14.235,8.5467 12.342,10.4397 10.015,10.4397 C7.688,10.4397 5.795,8.5467 5.795,6.2197 M12.455,10.8067 C14.1,9.9277 15.235,8.2127 15.235,6.2197 C15.235,3.3417 12.894,0.9997 10.015,0.9997 C7.137,0.9997 4.795,3.3417 4.795,6.2197 C4.795,8.2127 5.93,9.9277 7.576,10.8067 C4.346,11.7217 2,14.4037 2,17.5617 C2,17.8387 2.223,18.0617 2.5,18.0617 C2.776,18.0617 3,17.8387 3,17.5617 C3,14.2017 6.147,11.4687 10.015,11.4687 C13.884,11.4687 17.031,14.2017 17.031,17.5617 C17.031,17.8387 17.254,18.0617 17.531,18.0617 C17.807,18.0617 18.031,17.8387 18.031,17.5617 C18.031,14.4037 15.685,11.7217 12.455,10.8067" id="path-1"></path>
    </defs>
    <g id="logo用户" stroke="none" stroke-width="1" fill="none" fill-rule="evenodd">
        <g id="编组-11备份-3" transform="translate(0.000000, -0.205438)">
            <circle id="椭圆形" fill="#009FEE" cx="20" cy="20" r="20"></circle>
            <g id="20px/user" transform="translate(10.000000, 10.000000)">
                <mask id="mask-2" fill="white">
                    <use xlink:href="#path-1"></use>
                </mask>
                <use id="Fill-1" fill="#FFFFFF" xlink:href="#path-1"></use>
                <g id="编组" mask="url(#mask-2)" fill="#FFFFFF">
                    <g id="Icon_Color/normal">
                        <rect id="矩形" x="0" y="0" width="20" height="20"></rect>
                    </g>
                </g>
            </g>
        </g>
    </g>
</svg>