<?xml version="1.0" encoding="UTF-8"?>
<svg width="100px" height="100px" viewBox="0 0 100 100" version="1.1" xmlns="http://www.w3.org/2000/svg" xmlns:xlink="http://www.w3.org/1999/xlink">
    <title>logodark</title>
    <defs>
        <filter x="-16.0%" y="-16.0%" width="132.0%" height="132.0%" filterUnits="objectBoundingBox" id="filter-1">
            <feOffset dx="0" dy="4" in="SourceAlpha" result="shadowOffsetOuter1"></feOffset>
            <feGaussianBlur stdDeviation="2" in="shadowOffsetOuter1" result="shadowBlurOuter1"></feGaussianBlur>
            <feColorMatrix values="0 0 0 0 0   0 0 0 0 0   0 0 0 0 0  0 0 0 0.19340035 0" type="matrix" in="shadowBlurOuter1" result="shadowMatrixOuter1"></feColorMatrix>
            <feMerge>
                <feMergeNode in="shadowMatrixOuter1"></feMergeNode>
                <feMergeNode in="SourceGraphic"></feMergeNode>
            </feMerge>
        </filter>
        <linearGradient x1="66.5459088%" y1="105.715486%" x2="33.1973968%" y2="-2.63792699%" id="linearGradient-2">
            <stop stop-color="#FF45DD" offset="0%"></stop>
            <stop stop-color="#6772FB" offset="100%"></stop>
        </linearGradient>
        <linearGradient x1="35.3133085%" y1="114.631922%" x2="70.0794013%" y2="22.0593928%" id="linearGradient-3">
            <stop stop-color="#59FAF8" offset="0%"></stop>
            <stop stop-color="#2E99F4" offset="57.0173188%"></stop>
            <stop stop-color="#776CFE" offset="100%"></stop>
        </linearGradient>
    </defs>
    <g id="logodark" stroke="none" stroke-width="1" fill="none" fill-rule="evenodd">
        <g id="编组-2备份" transform="translate(0.000000, -0.000000)" fill-rule="nonzero">
            <g id="logo" filter="url(#filter-1)">
                <g id="AI-logo" transform="translate(15.000000, 13.000000)">
                    <path d="M18.7100314,24.2054769 C17.6084169,24.2054769 16.5802433,23.5210797 16.176318,22.4297435 C15.3317469,20.1545852 14.9094613,17.8054379 14.9094613,15.4377934 C14.9094613,13.0701489 15.3317469,10.7210017 16.176318,8.4458433 C16.708765,7.04005439 18.2510254,6.31866271 19.6464037,6.85508216 C21.0417821,7.37300439 21.7578315,8.94526831 21.2253845,10.3510572 C20.6011363,12.0158073 20.2890122,13.7175517 20.2890122,15.4377934 C20.2890122,17.1580351 20.6011363,18.8597796 21.2253845,20.5245296 C21.7394713,21.9303185 21.0417821,23.5025825 19.6464037,24.0205047 C19.3342796,24.131488 19.0221555,24.1869797 18.6916712,24.1869797 L18.7100314,24.2054769 Z" id="路径" fill="#36A0FB"></path>
                    <path d="M5.05001151,30.9199687 C3.948397,30.9199687 2.92022346,30.2355715 2.51629814,29.1442353 C0.863876381,24.6864047 0.0376655008,20.0805963 0.0376655008,15.4562906 C0.0376655008,10.831985 0.882236623,6.22617659 2.51629814,1.76834596 C3.03038491,0.362557047 4.60936571,-0.358834632 5.98638384,0.177584821 C7.38176221,0.695507053 8.09781164,2.26777097 7.56536463,3.67355988 C6.13326577,7.52098217 5.41721634,11.4793878 5.41721634,15.4562906 C5.41721634,19.4331935 6.13326577,23.3915991 7.56536463,27.2390214 C8.0794514,28.6448103 7.38176221,30.2170742 5.98638384,30.7349965 C5.67425973,30.8459798 5.36213562,30.9014715 5.03165127,30.9014715 L5.05001151,30.9199687 Z" id="路径" fill="#36A0FB" opacity="0.499930246"></path>
                    <path d="M52.3276341,24.2054769 C52.01551,24.2054769 51.6850256,24.1499852 51.3912618,24.0390019 C49.9958834,23.5210797 49.279834,21.9488158 49.812281,20.5430268 C50.418169,18.8782768 50.7302931,17.1765323 50.7302931,15.4562906 C50.7302931,13.7360489 50.418169,12.0343045 49.812281,10.3695544 C49.2981942,8.96376553 49.9958834,7.39150161 51.3912618,6.87357938 C52.7866401,6.35565715 54.3472607,7.05855161 54.8613475,8.46434052 C55.7059186,10.7394989 56.1282042,13.0886462 56.1282042,15.4562906 C56.1282042,17.8239351 55.7059186,20.1730824 54.8613475,22.4482408 C54.4574222,23.5395769 53.4292486,24.2239741 52.3276341,24.2239741 L52.3276341,24.2054769 Z" id="路径" fill="#36A0FB"></path>
                    <path d="M65.987654,30.9199687 C65.6755299,30.9199687 65.3450455,30.864477 65.0329214,30.7534937 C63.637543,30.2355715 62.9214936,28.6633075 63.4539406,27.2575186 C64.8860395,23.4285936 65.6020889,19.4516907 65.6020889,15.4747879 C65.6020889,11.497885 64.8860395,7.52098217 63.4539406,3.69205711 C62.9398539,2.28626819 63.637543,0.714004275 65.0329214,0.177584821 C66.4282998,-0.34033741 67.9889203,0.362557047 68.5213674,1.76834596 C70.1737891,6.20767937 71,10.8134878 71,15.4562906 C71,20.0990935 70.1554289,24.7049019 68.5213674,29.1442353 C68.117442,30.2355715 67.0892685,30.9199687 65.987654,30.9199687 L65.987654,30.9199687 Z" id="路径" fill="#36A0FB" opacity="0.499930246"></path>
                    <path d="M34.2244357,7.98341274 C29.3038909,7.98341274 26.0724884,13.162635 28.2022764,17.6389629 L53.4659691,70.9109638 C54.3656209,72.7976805 56.2567258,74 58.3314332,74 L68.3377649,74 C68.9987336,74 69.4393794,73.2971055 69.1456156,72.6866972 L40.2649553,11.8123378 C39.1449805,9.48168776 36.8132298,8.00190996 34.2427959,8.00190996 L34.2244357,7.98341274 Z" id="路径" fill="url(#linearGradient-2)"></path>
                    <path d="M43.514718,64.2889582 L40.0813528,57.0935386 C39.181701,55.2068219 37.2905961,54.0045024 35.2158888,54.0045024 L25.282998,54.0045024 C24.6220293,54.0045024 24.1813834,53.301608 24.4567871,52.6911996 L30.0383006,40.9824578 C30.75435,39.4841827 30.75435,37.763941 30.0383006,36.265666 L24.5669485,24.7788908 C24.2364642,24.0944936 23.2633714,24.0944936 22.932887,24.7788908 L8.99746349,54.0045024 L8.99746349,54.0045024 L3.47103071,65.5837637 L3.47103071,65.5837637 L0.0927462261,72.6682 C-0.201017642,73.2786083 0.23962816,73.9630056 0.900596865,73.9630056 L10.9069286,73.9630056 C12.981636,73.9630056 14.8727409,72.7606861 15.7723927,70.8739694 L16.8372867,68.6543027 C17.7369386,66.767586 19.6280435,65.5652665 21.7027508,65.5652665 L42.7068674,65.5652665 C43.3678361,65.5652665 43.8084819,64.8623721 43.514718,64.2704609 L43.514718,64.2889582 Z" id="路径" fill="url(#linearGradient-3)"></path>
                </g>
            </g>
        </g>
    </g>
</svg>